{"title":"BBC Proms 2012 - 23. A Fantasia of English Music","uid":7567157,"size":1119627025,"categoryP":"video","categoryS":"music_videos","magnet":"?xt=urn:btih:dbc799eef5d16b9a66c805523355019eb040e3a7&amp;dn=BBC+Proms+2012+-+23.+A+Fantasia+of+English+Music&amp;tr=udp%3A%2F%2Ftracker.openbittorrent.com%3A80&amp;tr=udp%3A%2F%2Fopen.demonii.com%3A1337&amp;tr=udp%3A%2F%2Ftracker.coppersurfer.tk%3A6969&amp;tr=udp%3A%2F%2Fexodus.desync.com%3A6969","seeders":0,"leechers":1,"uploader":"deandominic","files":2,"time":1345894395,"description":"Prom 23: Vaughan Williams, Ireland, Delius &amp; Walton\n\nVaughan Williams - Fantasia on a Theme by Thomas Tallis (16 mins)\nIreland - These Things Shall Be (22 mins)\nDelius - The Walk to the Paradise Garden (10 mins)\nWalton - Belshazzar's Feast (36 mins)\n\nJonathan Lemalu baritone, bass-baritone\nLondon Brass\nBBC Symphony Chorus\nBBC National Chorus of Wales\nBBC National Orchestra of Wales\nTadaaki Otaka conductor\n\nTadaaki Otaka, a notable enthusiast of British music, opens with Vaughan Williams's much loved classic before revisiting a BBC commission that has fallen into neglect in the half-century since its composer's death: Ireland's These Things Shall Be is a mini-oratorio with a utopian text.\n\nThe massed choirs and the commanding bass baritone of former BBC Radio 3 New Generation Artist Jonathan Lemalu return after the interval to animate Walton's brazen Old Testament tale, but first we hear from another anniversary composer, here at his most poignant.\n\nVideo\nID                                       : 1\nFormat                                   : AVC\nFormat/Info                              : Advanced Video Codec\nFormat profile                           : &lt;a class=&quot;__cf_email__&quot; href=&quot;/cdn-cgi/l/email-protection&quot; data-cfemail=&quot;eca18d8582aca0dfc2dc&quot;&gt;[email&amp;#160;protected]&lt;/a&gt;&lt;script data-cfhash='f9e31' type=&quot;text/javascript&quot;&gt;\n/* &lt;![CDATA[ */!function(){try{var t=&quot;currentScript&quot;in document?document.currentScript:function(){for(var t=document.getElementsByTagName(&quot;script&quot;),e=t.length;e--;)if(t[e].getAttribute(&quot;data-cfhash&quot;))return t[e]}();if(t&amp;&amp;t.previousSibling){var e,r,n,i,c=t.previousSibling,a=c.getAttribute(&quot;data-cfemail&quot;);if(a){for(e=&quot;&quot;,r=parseInt(a.substr(0,2),16),n=2;a.length-n;n+=2)i=parseInt(a.substr(n,2),16)^r,e+=String.fromCharCode(i);e=document.createTextNode(e),c.parentNode.replaceChild(e,c)}t.parentNode.removeChild(t);}}catch(u){}}()/* ]]&gt; */&lt;/script&gt;\nFormat settings, CABAC                   : Yes\nFormat settings, ReFrames                : 4 frames\nCodec ID                                 : avc1\nCodec ID/Info                            : Advanced Video Coding\nDuration                                 : 1h 39mn\nBit rate mode                            : Constant\nBit rate                                 : 1 404 Kbps\nWidth                                    : 832 pixels\nHeight                                   : 468 pixels\nDisplay aspect ratio                     : 16:9\nFrame rate mode                          : Constant\nFrame rate                               : 25.000 fps\nStandard                                 : PAL\nColor space                              : YUV\nChroma subsampling                       : 4:2:0\nBit depth                                : 8 bits\nScan type                                : Progressive\nBits/(Pixel*Frame)                       : 0.144\nStream size                              : 996 MiB (93%)\n\nAudio\nID                                       : 2\nFormat                                   : AAC\nFormat/Info                              : Advanced Audio Codec\nFormat profile                           : HE-AAC / LC\nCodec ID                                 : 40\nDuration                                 : 1h 39mn\nBit rate mode                            : Constant\nBit rate                                 : 96.0 Kbps\nChannel(s)                               : 2 channels\nChannel positions                        : Front: L R\nSampling rate                            : 48.0 KHz / 24.0 KHz\nCompression mode                         : Lossy\nStream size                              : 67.3 MiB (6%)\n","torrent":{"xt":"urn:btih:dbc799eef5d16b9a66c805523355019eb040e3a7","amp;dn":"BBC+Proms+2012+-+23.+A+Fantasia+of+English+Music","amp;tr":["udp%3A%2F%2Ftracker.openbittorrent.com%3A80","udp%3A%2F%2Fopen.demonii.com%3A1337","udp%3A%2F%2Ftracker.coppersurfer.tk%3A6969","udp%3A%2F%2Fexodus.desync.com%3A6969"],"infoHash":"dbc799eef5d16b9a66c805523355019eb040e3a7","infoHashBuffer":{"type":"Buffer","data":[219,199,153,238,245,209,107,154,102,200,5,82,51,85,1,158,176,64,227,167]},"announce":[],"urlList":[]}}